<svg width="150" height="150" viewBox="0 0 150 150" fill="none" xmlns="http://www.w3.org/2000/svg">
    <g clip-path="url(#clip0_38_2)">
        <rect width="150" height="150" rx="75" fill="white" />
        <path
            d="M33.8144 88.8866V110H23.5216V60.9113H33.8144V70.6763C35.4859 67.5973 37.7292 65.09 40.5443 63.1546C43.4474 61.2192 46.4825 60.2076 49.6495 60.1196L49.7814 70.5443H49.2536C44.2392 70.5443 40.4124 72.1718 37.7732 75.4268C35.134 78.6818 33.8144 83.1684 33.8144 88.8866ZM70.4394 110H60.1466V41.5134H70.4394V81.7608L90.3652 60.9113H103.693L85.0869 80.3093L105.145 110H92.4765L77.9611 88.4907L70.4394 96.0124V110ZM112.445 103.798C112.445 101.863 113.105 100.235 114.424 98.9155C115.744 97.5959 117.372 96.9361 119.307 96.9361C121.242 96.9361 122.87 97.5959 124.189 98.9155C125.597 100.235 126.301 101.863 126.301 103.798C126.301 105.733 125.597 107.405 124.189 108.812C122.87 110.132 121.242 110.792 119.307 110.792C117.284 110.792 115.7 110.088 114.556 108.68C113.149 107.361 112.445 105.733 112.445 103.798Z"
            fill="black" />
    </g>
    <defs>
        <clipPath id="clip0_38_2">
            <rect width="150" height="150" fill="white" />
        </clipPath>
    </defs>
</svg>